<svg width="80" height="20" viewBox="0 0 80 20" fill="none" xmlns="http://www.w3.org/2000/svg">
<rect width="80" height="20" fill="#FFB800"/>
<path d="M12.1797 15V6.46875H15.1035C16.0684 6.46875 16.8027 6.66211 17.3066 7.04883C17.8105 7.43555 18.0625 8.01172 18.0625 8.77734C18.0625 9.16797 17.957 9.51953 17.7461 9.83203C17.5352 10.1445 17.2266 10.3867 16.8203 10.5586C17.2812 10.6836 17.6367 10.9199 17.8867 11.2676C18.1406 11.6113 18.2676 12.0254 18.2676 12.5098C18.2676 13.3105 18.0098 13.9258 17.4941 14.3555C16.9824 14.7852 16.248 15 15.291 15H12.1797ZM13.6621 11.1504V13.8164H15.3086C15.7734 13.8164 16.1367 13.7012 16.3984 13.4707C16.6602 13.2402 16.791 12.9199 16.791 12.5098C16.791 11.623 16.3379 11.1699 15.4316 11.1504H13.6621ZM13.6621 10.0605H15.1152C15.5762 10.0605 15.9355 9.95703 16.1934 9.75C16.4551 9.53906 16.5859 9.24219 16.5859 8.85938C16.5859 8.4375 16.4648 8.13281 16.2227 7.94531C15.9844 7.75781 15.6113 7.66406 15.1035 7.66406H13.6621V10.0605ZM22.4043 15.1172C21.502 15.1172 20.7695 14.834 20.207 14.2676C19.6484 13.6973 19.3691 12.9395 19.3691 11.9941V11.8184C19.3691 11.1855 19.4902 10.6211 19.7324 10.125C19.9785 9.625 20.3223 9.23633 20.7637 8.95898C21.2051 8.68164 21.6973 8.54297 22.2402 8.54297C23.1035 8.54297 23.7695 8.81836 24.2383 9.36914C24.7109 9.91992 24.9473 10.6992 24.9473 11.707V12.2812H20.8047C20.8477 12.8047 21.0215 13.2188 21.3262 13.5234C21.6348 13.8281 22.0215 13.9805 22.4863 13.9805C23.1387 13.9805 23.6699 13.7168 24.0801 13.1895L24.8477 13.9219C24.5938 14.3008 24.2539 14.5957 23.8281 14.8066C23.4062 15.0137 22.9316 15.1172 22.4043 15.1172ZM22.2344 9.68555C21.8438 9.68555 21.5273 9.82227 21.2852 10.0957C21.0469 10.3691 20.8945 10.75 20.8281 11.2383H23.541V11.1328C23.5098 10.6562 23.3828 10.2969 23.1602 10.0547C22.9375 9.80859 22.6289 9.68555 22.2344 9.68555ZM29.6113 13.2773C29.6113 13.0234 29.5059 12.8301 29.2949 12.6973C29.0879 12.5645 28.7422 12.4473 28.2578 12.3457C27.7734 12.2441 27.3691 12.1152 27.0449 11.959C26.334 11.6152 25.9785 11.1172 25.9785 10.4648C25.9785 9.91797 26.209 9.46094 26.6699 9.09375C27.1309 8.72656 27.7168 8.54297 28.4277 8.54297C29.1855 8.54297 29.7969 8.73047 30.2617 9.10547C30.7305 9.48047 30.9648 9.9668 30.9648 10.5645H29.541C29.541 10.291 29.4395 10.0645 29.2363 9.88477C29.0332 9.70117 28.7637 9.60938 28.4277 9.60938C28.1152 9.60938 27.8594 9.68164 27.6602 9.82617C27.4648 9.9707 27.3672 10.1641 27.3672 10.4062C27.3672 10.625 27.459 10.7949 27.6426 10.916C27.8262 11.0371 28.1973 11.1602 28.7559 11.2852C29.3145 11.4062 29.752 11.5527 30.0684 11.7246C30.3887 11.8926 30.625 12.0957 30.7773 12.334C30.9336 12.5723 31.0117 12.8613 31.0117 13.2012C31.0117 13.7715 30.7754 14.2344 30.3027 14.5898C29.8301 14.9414 29.2109 15.1172 28.4453 15.1172C27.9258 15.1172 27.4629 15.0234 27.0566 14.8359C26.6504 14.6484 26.334 14.3906 26.1074 14.0625C25.8809 13.7344 25.7676 13.3809 25.7676 13.002H27.1504C27.1699 13.3379 27.2969 13.5977 27.5312 13.7812C27.7656 13.9609 28.0762 14.0508 28.4629 14.0508C28.8379 14.0508 29.123 13.9805 29.3184 13.8398C29.5137 13.6953 29.6113 13.5078 29.6113 13.2773ZM34.041 7.11914V8.66016H35.1602V9.71484H34.041V13.2539C34.041 13.4961 34.0879 13.6719 34.1816 13.7812C34.2793 13.8867 34.4512 13.9395 34.6973 13.9395C34.8613 13.9395 35.0273 13.9199 35.1953 13.8809V14.9824C34.8711 15.0723 34.5586 15.1172 34.2578 15.1172C33.1641 15.1172 32.6172 14.5137 32.6172 13.3066V9.71484H31.5742V8.66016H32.6172V7.11914H34.041ZM42.3848 13.1426L44.5527 6.46875H46.1816L43.1113 15H41.6758L38.6172 6.46875H40.2402L42.3848 13.1426ZM50.5293 15C50.4668 14.8789 50.4121 14.6816 50.3652 14.4082C49.9121 14.8809 49.3574 15.1172 48.7012 15.1172C48.0645 15.1172 47.5449 14.9355 47.1426 14.5723C46.7402 14.209 46.5391 13.7598 46.5391 13.2246C46.5391 12.5488 46.7891 12.0312 47.2891 11.6719C47.793 11.3086 48.5117 11.127 49.4453 11.127H50.3184V10.7109C50.3184 10.3828 50.2266 10.1211 50.043 9.92578C49.8594 9.72656 49.5801 9.62695 49.2051 9.62695C48.8809 9.62695 48.6152 9.70898 48.4082 9.87305C48.2012 10.0332 48.0977 10.2383 48.0977 10.4883H46.6738C46.6738 10.1406 46.7891 9.81641 47.0195 9.51562C47.25 9.21094 47.5625 8.97266 47.957 8.80078C48.3555 8.62891 48.7988 8.54297 49.2871 8.54297C50.0293 8.54297 50.6211 8.73047 51.0625 9.10547C51.5039 9.47656 51.7305 10 51.7422 10.6758V13.5352C51.7422 14.1055 51.8223 14.5605 51.9824 14.9004V15H50.5293ZM48.9648 13.9746C49.2461 13.9746 49.5098 13.9062 49.7559 13.7695C50.0059 13.6328 50.1934 13.4492 50.3184 13.2188V12.0234H49.5508C49.0234 12.0234 48.627 12.1152 48.3613 12.2988C48.0957 12.4824 47.9629 12.7422 47.9629 13.0781C47.9629 13.3516 48.0527 13.5703 48.2324 13.7344C48.416 13.8945 48.6602 13.9746 48.9648 13.9746ZM54.748 15H53.3242V6H54.748V15ZM60.1445 14.3789C59.7266 14.8711 59.1328 15.1172 58.3633 15.1172C57.6758 15.1172 57.1543 14.916 56.7988 14.5137C56.4473 14.1113 56.2715 13.5293 56.2715 12.7676V8.66016H57.6953V12.75C57.6953 13.5547 58.0293 13.957 58.6973 13.957C59.3887 13.957 59.8555 13.709 60.0977 13.2129V8.66016H61.5215V15H60.1797L60.1445 14.3789ZM65.7637 15.1172C64.8613 15.1172 64.1289 14.834 63.5664 14.2676C63.0078 13.6973 62.7285 12.9395 62.7285 11.9941V11.8184C62.7285 11.1855 62.8496 10.6211 63.0918 10.125C63.3379 9.625 63.6816 9.23633 64.123 8.95898C64.5645 8.68164 65.0566 8.54297 65.5996 8.54297C66.4629 8.54297 67.1289 8.81836 67.5977 9.36914C68.0703 9.91992 68.3066 10.6992 68.3066 11.707V12.2812H64.1641C64.207 12.8047 64.3809 13.2188 64.6855 13.5234C64.9941 13.8281 65.3809 13.9805 65.8457 13.9805C66.498 13.9805 67.0293 13.7168 67.4395 13.1895L68.207 13.9219C67.9531 14.3008 67.6133 14.5957 67.1875 14.8066C66.7656 15.0137 66.291 15.1172 65.7637 15.1172ZM65.5938 9.68555C65.2031 9.68555 64.8867 9.82227 64.6445 10.0957C64.4062 10.3691 64.2539 10.75 64.1875 11.2383H66.9004V11.1328C66.8691 10.6562 66.7422 10.2969 66.5195 10.0547C66.2969 9.80859 65.9883 9.68555 65.5938 9.68555Z" fill="#2B2929"/>
</svg>
